<?xml version="1.0" encoding="UTF-8" standalone="no"?>
<svg
   id="owl"
   width="220"
   height="220"
   viewBox="0 0 220 220"
   version="1.1"
   sodipodi:docname="logo.svg"
   inkscape:version="1.4.3 (0d15f75, 2025-12-25)"
   xmlns:inkscape="http://www.inkscape.org/namespaces/inkscape"
   xmlns:sodipodi="http://sodipodi.sourceforge.net/DTD/sodipodi-0.dtd"
   xmlns="http://www.w3.org/2000/svg"
   xmlns:svg="http://www.w3.org/2000/svg">
  <sodipodi:namedview
     id="namedview2"
     pagecolor="#ffffff"
     bordercolor="#000000"
     borderopacity="0.25"
     inkscape:showpageshadow="2"
     inkscape:pageopacity="0.0"
     inkscape:pagecheckerboard="0"
     inkscape:deskcolor="#d1d1d1"
     inkscape:zoom="2.8865504"
     inkscape:cx="81.238837"
     inkscape:cy="112.93757"
     inkscape:window-width="1570"
     inkscape:window-height="875"
     inkscape:window-x="0"
     inkscape:window-y="34"
     inkscape:window-maximized="0"
     inkscape:current-layer="owl" />
  <defs
     id="defs1">
    <!-- clip: only show below y=196 -->
    <clipPath
       id="leg-clip">
      <rect
         x="0"
         y="0"
         width="160"
         height="200"
         id="rect1" />
    </clipPath>
  </defs>
  <!-- ears -->
  <polygon
     id="ear-l"
     points="52,76 44,20 72,64 "
     fill="#2d2248"
     transform="matrix(1.4501972,0,0,1.2418411,-6.5688622,-21.119232)" />
  <polygon
     id="ear-r"
     points="108,76 116,20 88,64 "
     fill="#2d2248"
     transform="matrix(1.4501972,0,0,1.2418411,-6.5688622,-21.119232)" />
  <!-- body -->
  <ellipse
     id="body"
     cx="110.83265"
     cy="156.7231"
     fill="#2d2248"
     rx="54.314423"
     ry="50.010414"
     style="stroke-width:1.133" />
  <!-- head -->
  <ellipse
     id="head"
     cx="110.83265"
     cy="86.056213"
     rx="54.314423"
     ry="47.836048"
     fill="#2d2248"
     style="stroke-width:1.133" />
  <!-- belly -->
  <ellipse
     id="belly"
     cx="110.83265"
     cy="164.33337"
     rx="30.699457"
     ry="32.615486"
     fill="#ede8df"
     style="stroke-width:1.133" />
  <!-- eyes -->
  <ellipse
     id="eye-l-white"
     cx="89.579178"
     cy="83.881844"
     fill="#ede8df"
     rx="17.711226"
     ry="16.307743"
     style="stroke-width:1.133" />
  <ellipse
     id="eye-r-white"
     cx="132.08611"
     cy="83.881844"
     fill="#ede8df"
     rx="17.711226"
     ry="16.307743"
     style="stroke-width:1.133" />
  <ellipse
     id="eye-l-pupil"
     cx="89.579178"
     cy="83.881844"
     fill="#2d2248"
     rx="10.626735"
     ry="9.784646"
     style="stroke-width:1.133" />
  <ellipse
     id="eye-r-pupil"
     cx="132.08611"
     cy="83.881844"
     fill="#2d2248"
     rx="10.626735"
     ry="9.784646"
     style="stroke-width:1.133" />
  <ellipse
     cx="84.856186"
     cy="79.533112"
     fill="#ffffff"
     id="circle1"
     rx="3.5422449"
     ry="3.2615488"
     style="stroke-width:1.133" />
  <ellipse
     cx="127.36313"
     cy="79.533112"
     fill="#ffffff"
     id="circle2"
     rx="3.5422449"
     ry="3.2615488"
     style="stroke-width:1.133" />
  <!-- beak -->
  <polygon
     id="beak"
     points="86,103 80,113 74,103 "
     fill="#d4a017"
     transform="matrix(1.1807483,0,0,1.0871829,16.372785,-11.790252)" />
  <!-- legs: on top, clipped to floor line -->
  <ellipse
     id="leg-l"
     cx="67"
     cy="184"
     rx="12"
     ry="16"
     fill="#d4a017"
     clip-path="url(#leg-clip)"
     transform="matrix(-1.1807483,0,0,-1.0871829,204.1402,399.9641)" />
  <ellipse
     id="leg-r"
     cx="93"
     cy="184"
     rx="12"
     ry="16"
     fill="#d4a017"
     clip-path="url(#leg-clip)"
     transform="matrix(-1.1807483,0,0,-1.0871829,204.1402,399.9641)" />
</svg>
